<?xml version="1.0" encoding="UTF-8" standalone="no"?>
<!-- Created with Inkscape (http://www.inkscape.org/) -->

<svg
   xmlns:dc="http://purl.org/dc/elements/1.1/"
   xmlns:cc="http://creativecommons.org/ns#"
   xmlns:rdf="http://www.w3.org/1999/02/22-rdf-syntax-ns#"
   xmlns:svg="http://www.w3.org/2000/svg"
   xmlns="http://www.w3.org/2000/svg"
   xmlns:sodipodi="http://sodipodi.sourceforge.net/DTD/sodipodi-0.dtd"
   xmlns:inkscape="http://www.inkscape.org/namespaces/inkscape"
   version="1.1"
   id="svg2"
   xml:space="preserve"
   width="515.15668"
   height="107.37041"
   viewBox="0 0 515.15668 107.3704"
   sodipodi:docname="beam_fem.svg"
   inkscape:version="0.92.1 r15371"><metadata
     id="metadata8"><rdf:RDF><cc:Work
         rdf:about=""><dc:format>image/svg+xml</dc:format><dc:type
           rdf:resource="http://purl.org/dc/dcmitype/StillImage" /><dc:title></dc:title></cc:Work></rdf:RDF></metadata><defs
     id="defs6" /><sodipodi:namedview
     pagecolor="#ffffff"
     bordercolor="#666666"
     borderopacity="1"
     objecttolerance="10"
     gridtolerance="10"
     guidetolerance="10"
     inkscape:pageopacity="0"
     inkscape:pageshadow="2"
     inkscape:window-width="1920"
     inkscape:window-height="1136"
     id="namedview4"
     showgrid="true"
     fit-margin-top="0"
     fit-margin-left="0"
     fit-margin-right="0"
     fit-margin-bottom="0"
     inkscape:zoom="1.6817101"
     inkscape:cx="277.25769"
     inkscape:cy="-14.409103"
     inkscape:window-x="0"
     inkscape:window-y="27"
     inkscape:window-maximized="1"
     inkscape:current-layer="g12"><inkscape:grid
       type="xygrid"
       id="grid392"
       originx="-149.06941"
       originy="-855.37354" /></sodipodi:namedview><g
     id="g10"
     inkscape:groupmode="layer"
     inkscape:label="tmp"
     transform="matrix(1.3333333,0,0,-1.3333333,-149.06941,962.74395)"><g
       id="g12"
       transform="scale(0.12)"><path
         d="m 1007,5742.4 h 2762.4 v 197.402 H 1007 Z"
         style="fill:none;stroke:#000000;stroke-width:7;stroke-linecap:round;stroke-linejoin:miter;stroke-miterlimit:10;stroke-dasharray:none;stroke-opacity:1"
         id="path28"
         inkscape:connector-curvature="0" /><path
         d="M 1401.8,5939.8 V 5742.4"
         style="fill:none;stroke:#000000;stroke-width:3;stroke-linecap:round;stroke-linejoin:miter;stroke-miterlimit:10;stroke-dasharray:none;stroke-opacity:1"
         id="path30"
         inkscape:connector-curvature="0" /><path
         d="M 1796.6,5939.8 V 5742.4"
         style="fill:none;stroke:#000000;stroke-width:3;stroke-linecap:round;stroke-linejoin:miter;stroke-miterlimit:10;stroke-dasharray:none;stroke-opacity:1"
         id="path32"
         inkscape:connector-curvature="0" /><path
         d="M 2191.4,5939.8 V 5742.4"
         style="fill:none;stroke:#000000;stroke-width:3;stroke-linecap:round;stroke-linejoin:miter;stroke-miterlimit:10;stroke-dasharray:none;stroke-opacity:1"
         id="path34"
         inkscape:connector-curvature="0" /><path
         d="M 2586.2,5939.8 V 5742.4"
         style="fill:none;stroke:#000000;stroke-width:3;stroke-linecap:round;stroke-linejoin:miter;stroke-miterlimit:10;stroke-dasharray:none;stroke-opacity:1"
         id="path36"
         inkscape:connector-curvature="0" /><path
         d="M 2979.8,5939.8 V 5742.4"
         style="fill:none;stroke:#000000;stroke-width:3;stroke-linecap:round;stroke-linejoin:miter;stroke-miterlimit:10;stroke-dasharray:none;stroke-opacity:1"
         id="path38"
         inkscape:connector-curvature="0" /><path
         d="M 3374.6,5939.8 V 5742.4"
         style="fill:none;stroke:#000000;stroke-width:3;stroke-linecap:round;stroke-linejoin:miter;stroke-miterlimit:10;stroke-dasharray:none;stroke-opacity:1"
         id="path40"
         inkscape:connector-curvature="0" /><path
         d="M 1204.4,5939.8 V 5742.4"
         style="fill:none;stroke:#000000;stroke-width:3;stroke-linecap:round;stroke-linejoin:miter;stroke-miterlimit:10;stroke-dasharray:none;stroke-opacity:1"
         id="path42"
         inkscape:connector-curvature="0" /><path
         d="M 1599.2,5939.8 V 5742.4"
         style="fill:none;stroke:#000000;stroke-width:3;stroke-linecap:round;stroke-linejoin:miter;stroke-miterlimit:10;stroke-dasharray:none;stroke-opacity:1"
         id="path44"
         inkscape:connector-curvature="0" /><path
         d="M 1994,5939.8 V 5742.4"
         style="fill:none;stroke:#000000;stroke-width:3;stroke-linecap:round;stroke-linejoin:miter;stroke-miterlimit:10;stroke-dasharray:none;stroke-opacity:1"
         id="path46"
         inkscape:connector-curvature="0" /><path
         d="M 2388.8,5939.8 V 5742.4"
         style="fill:none;stroke:#000000;stroke-width:3;stroke-linecap:round;stroke-linejoin:miter;stroke-miterlimit:10;stroke-dasharray:none;stroke-opacity:1"
         id="path48"
         inkscape:connector-curvature="0" /><path
         d="M 2782.4,5939.8 V 5742.4"
         style="fill:none;stroke:#000000;stroke-width:3;stroke-linecap:round;stroke-linejoin:miter;stroke-miterlimit:10;stroke-dasharray:none;stroke-opacity:1"
         id="path50"
         inkscape:connector-curvature="0" /><path
         d="M 3177.2,5939.8 V 5742.4"
         style="fill:none;stroke:#000000;stroke-width:3;stroke-linecap:round;stroke-linejoin:miter;stroke-miterlimit:10;stroke-dasharray:none;stroke-opacity:1"
         id="path52"
         inkscape:connector-curvature="0" /><path
         d="M 3572,5939.8 V 5742.4"
         style="fill:none;stroke:#000000;stroke-width:3;stroke-linecap:round;stroke-linejoin:miter;stroke-miterlimit:10;stroke-dasharray:none;stroke-opacity:1"
         id="path54"
         inkscape:connector-curvature="0" /><path
         d="m 3769.4,5866 h 222 v -49.2 h -222"
         style="fill:none;stroke:#000000;stroke-width:7;stroke-linecap:round;stroke-linejoin:miter;stroke-miterlimit:10;stroke-dasharray:none;stroke-opacity:1"
         id="path56"
         inkscape:connector-curvature="0" /><path
         d="m 3843.8,5866 v -49.2"
         style="fill:none;stroke:#000000;stroke-width:3;stroke-linecap:round;stroke-linejoin:miter;stroke-miterlimit:10;stroke-dasharray:none;stroke-opacity:1"
         id="path58"
         inkscape:connector-curvature="0" /><path
         d="m 3917.6,5866 v -49.2"
         style="fill:none;stroke:#000000;stroke-width:3;stroke-linecap:round;stroke-linejoin:miter;stroke-miterlimit:10;stroke-dasharray:none;stroke-opacity:1"
         id="path60"
         inkscape:connector-curvature="0" /><path
         d="m 3991.4,6013.6 v -345"
         style="fill:none;stroke:#000000;stroke-width:7;stroke-linecap:round;stroke-linejoin:miter;stroke-miterlimit:10;stroke-dasharray:none;stroke-opacity:1"
         id="path62"
         inkscape:connector-curvature="0" /><path
         d="m 4053.8,6013.6 -62.4,-62.4"
         style="fill:none;stroke:#000000;stroke-width:3;stroke-linecap:round;stroke-linejoin:miter;stroke-miterlimit:10;stroke-dasharray:none;stroke-opacity:1"
         id="path64"
         inkscape:connector-curvature="0" /><path
         d="m 4065.8,5950 -74.4,-73.8"
         style="fill:none;stroke:#000000;stroke-width:3;stroke-linecap:round;stroke-linejoin:miter;stroke-miterlimit:10;stroke-dasharray:none;stroke-opacity:1"
         id="path66"
         inkscape:connector-curvature="0" /><path
         d="m 4065.8,5875 -74.4,-73.8"
         style="fill:none;stroke:#000000;stroke-width:3;stroke-linecap:round;stroke-linejoin:miter;stroke-miterlimit:10;stroke-dasharray:none;stroke-opacity:1"
         id="path68"
         inkscape:connector-curvature="0" /><path
         d="m 4065.8,5800 -74.4,-73.8"
         style="fill:none;stroke:#000000;stroke-width:3;stroke-linecap:round;stroke-linejoin:miter;stroke-miterlimit:10;stroke-dasharray:none;stroke-opacity:1"
         id="path70"
         inkscape:connector-curvature="0" /><path
         d="m 4065.8,5725 -56.4,-56.4"
         style="fill:none;stroke:#000000;stroke-width:3;stroke-linecap:round;stroke-linejoin:miter;stroke-miterlimit:10;stroke-dasharray:none;stroke-opacity:1"
         id="path72"
         inkscape:connector-curvature="0" /><path
         d="m 1007,6013.6 v -345"
         style="fill:none;stroke:#000000;stroke-width:7;stroke-linecap:round;stroke-linejoin:miter;stroke-miterlimit:10;stroke-dasharray:none;stroke-opacity:1"
         id="path74"
         inkscape:connector-curvature="0" /><path
         d="M 972.801,6013.6 933.199,5974"
         style="fill:none;stroke:#000000;stroke-width:3;stroke-linecap:round;stroke-linejoin:miter;stroke-miterlimit:10;stroke-dasharray:none;stroke-opacity:1"
         id="path76"
         inkscape:connector-curvature="0" /><path
         d="M 1007,5972.8 933.199,5899"
         style="fill:none;stroke:#000000;stroke-width:3;stroke-linecap:round;stroke-linejoin:miter;stroke-miterlimit:10;stroke-dasharray:none;stroke-opacity:1"
         id="path78"
         inkscape:connector-curvature="0" /><path
         d="M 1007,5897.8 933.199,5824"
         style="fill:none;stroke:#000000;stroke-width:3;stroke-linecap:round;stroke-linejoin:miter;stroke-miterlimit:10;stroke-dasharray:none;stroke-opacity:1"
         id="path80"
         inkscape:connector-curvature="0" /><path
         d="m 1007,5822.8 -73.801,-74.4"
         style="fill:none;stroke:#000000;stroke-width:3;stroke-linecap:round;stroke-linejoin:miter;stroke-miterlimit:10;stroke-dasharray:none;stroke-opacity:1"
         id="path82"
         inkscape:connector-curvature="0" /><path
         d="m 1007,5747.8 -73.801,-74.4"
         style="fill:none;stroke:#000000;stroke-width:3;stroke-linecap:round;stroke-linejoin:miter;stroke-miterlimit:10;stroke-dasharray:none;stroke-opacity:1"
         id="path84"
         inkscape:connector-curvature="0" /><path
         d="m 1007,5672.2 -3.6,-3.6"
         style="fill:none;stroke:#000000;stroke-width:3;stroke-linecap:round;stroke-linejoin:miter;stroke-miterlimit:10;stroke-dasharray:none;stroke-opacity:1"
         id="path86"
         inkscape:connector-curvature="0" /><path
         d="m 3769.4,5742.4 v -49.2 l 49.2,-24.6 -98.4,-49.2 98.4,-49.8 -98.4,-49.2 49.2,-24.6 V 5422"
         style="fill:none;stroke:#000000;stroke-width:7;stroke-linecap:round;stroke-linejoin:miter;stroke-miterlimit:10;stroke-dasharray:none;stroke-opacity:1"
         id="path88"
         inkscape:connector-curvature="0" /><path
         d="m 3671,5422 h 197.4"
         style="fill:none;stroke:#000000;stroke-width:7;stroke-linecap:round;stroke-linejoin:miter;stroke-miterlimit:10;stroke-dasharray:none;stroke-opacity:1"
         id="path90"
         inkscape:connector-curvature="0" /><path
         d="M 3687.2,5422 3671,5405.2"
         style="fill:none;stroke:#000000;stroke-width:3;stroke-linecap:round;stroke-linejoin:miter;stroke-miterlimit:10;stroke-dasharray:none;stroke-opacity:1"
         id="path92"
         inkscape:connector-curvature="0" /><path
         d="m 3762.8,5422 -74.4,-74.4"
         style="fill:none;stroke:#000000;stroke-width:3;stroke-linecap:round;stroke-linejoin:miter;stroke-miterlimit:10;stroke-dasharray:none;stroke-opacity:1"
         id="path94"
         inkscape:connector-curvature="0" /><path
         d="M 3837.8,5422 3764,5347.6"
         style="fill:none;stroke:#000000;stroke-width:3;stroke-linecap:round;stroke-linejoin:miter;stroke-miterlimit:10;stroke-dasharray:none;stroke-opacity:1"
         id="path96"
         inkscape:connector-curvature="0" /><path
         d="M 3868.4,5377 3839,5347.6"
         style="fill:none;stroke:#000000;stroke-width:3;stroke-linecap:round;stroke-linejoin:miter;stroke-miterlimit:10;stroke-dasharray:none;stroke-opacity:1"
         id="path98"
         inkscape:connector-curvature="0" /><path
         d="m 3769.4,5841.4 1.2,0.6 h 2.4 l 1.2,0.6 0.6,0.6 h 1.2 l 0.6,0.6 0.6,0.6 1.2,0.6 0.6,1.2 v 0.6 l 0.6,1.2 v 1.2 l 0.6,1.2 v 1.8 l -0.6,1.2 v 1.2 l -0.6,1.8 -0.6,1.2 -0.6,1.2 -1.2,1.2 -1.2,1.2 -1.2,1.2 -1.8,0.6 -1.2,0.6 -1.8,0.6 -1.8,0.6 h -7.8 l -1.2,-0.6 -1.8,-0.6 -1.2,-0.6 -1.8,-0.6 -1.2,-1.2 -0.6,-1.2 -1.2,-1.2 -0.6,-1.2 -1.2,-1.2 -0.6,-1.8 v -1.2 l -0.6,-1.2 -0.6,-1.8 v -6.6 l 0.6,-1.2 v -1.2 l 0.6,-1.2 0.6,-1.2 0.6,-1.2 0.6,-1.2 0.6,-1.2 0.6,-1.2 1.2,-1.2 1.2,-1.2 0.6,-0.6 1.2,-1.2 1.2,-0.6 1.8,-1.2 1.2,-0.6 1.2,-0.6 1.8,-0.6 1.8,-0.6 h 3.6 l 1.8,-0.6 h 1.8 l 1.8,0.6 h 1.8 l 1.8,0.6 h 1.8 l 1.8,0.6 1.2,0.6 1.8,0.6 1.2,1.2 1.2,0.6 0.6,1.2 1.2,0.6 0.6,1.2 1.2,1.2 0.6,1.2 0.6,1.2 0.6,1.2 0.6,1.2 v 1.8 l 0.6,1.2 v 1.2 l 0.6,1.8 v 2.4 l 0.6,1.8 v 2.4 l -0.6,1.8 v 1.2"
         style="fill:none;stroke:#000000;stroke-width:3;stroke-linecap:round;stroke-linejoin:miter;stroke-miterlimit:10;stroke-dasharray:none;stroke-opacity:1"
         id="path100"
         inkscape:connector-curvature="0" /><path
         d="m 3793.4,5854.6 v 2.4 l -0.6,1.2 v 1.2 l -0.6,1.2 -0.6,0.6 v 1.2 l -0.6,1.2 -0.6,1.2 -0.6,0.6 -0.6,1.2 -1.2,0.6 -0.6,1.2 -1.2,1.2 -0.6,0.6 -1.2,1.2 -0.6,0.6 -1.2,0.6 -1.2,1.2 -1.2,0.6 -0.6,0.6 -1.2,0.6 -1.2,0.6 -1.2,0.6 h -1.2 l -1.2,0.6 h -1.8 l -1.2,0.6 h -9 l -1.8,-0.6 h -1.8 l -1.8,-0.6 h -1.8 l -1.8,-0.6 -1.8,-0.6 -1.8,-0.6 -1.8,-1.2 -1.2,-0.6 -1.8,-1.2 -1.8,-0.6 -1.2,-1.2 -1.2,-1.2 -1.2,-1.8 -1.2,-1.2 -1.2,-1.8 -1.2,-1.2 -0.6,-1.8 -1.2,-1.8 -0.6,-2.4 -0.6,-1.8 v -1.8 l -0.6,-2.4 v -10.8 l 0.6,-1.8 v -2.4 l 0.6,-1.8 0.6,-1.8 0.6,-1.8 1.2,-1.2 0.6,-1.8 1.2,-1.2 0.6,-1.2 1.2,-1.2 1.2,-1.2 1.2,-1.2 1.2,-0.6 1.2,-1.2 1.2,-0.6 0.6,-1.2 1.2,-0.6 1.2,-0.6 1.2,-1.2 1.2,-0.6 1.2,-0.6 1.2,-0.6 1.2,-0.6 1.2,-0.6 1.2,-0.6 h 1.2 l 1.2,-0.6 1.2,-0.6 h 1.2 l 1.8,-0.6 h 6.6 l 1.2,-0.6 h 1.2"
         style="fill:none;stroke:#000000;stroke-width:3;stroke-linecap:round;stroke-linejoin:miter;stroke-miterlimit:10;stroke-dasharray:none;stroke-opacity:1"
         id="path102"
         inkscape:connector-curvature="0" /><path
         d="m 3771.8,5809.6 1.2,0.6 h 4.8 l 1.2,0.6 h 1.8 l 1.2,0.6 1.2,0.6 0.6,0.6 h 1.2 l 1.2,0.6 1.2,1.2 1.2,0.6 1.2,0.6 1.2,0.6 0.6,1.2 1.2,0.6 1.2,0.6 0.6,0.6 1.2,1.2 0.6,0.6 0.6,0.6 1.2,0.6 0.6,1.2 0.6,0.6 0.6,0.6 0.6,1.2 v 0.6 l 0.6,1.2 0.6,0.6 0.6,1.2 0.6,1.2 0.6,1.2 v 1.2 l 0.6,1.2 0.6,1.8 0.6,1.2 0.6,1.2 v 1.8 l 0.6,1.2 0.6,1.8 v 1.2 l 0.6,1.8 v 10.2 l -0.6,1.2 v 1.2 l -0.6,1.8 -0.6,1.2 -0.6,1.2 -0.6,1.8 -0.6,1.2 -0.6,1.2 -0.6,1.2 -0.6,1.2 -0.6,1.2 -1.2,1.2 -0.6,1.2 -0.6,1.2 -0.6,1.2 -1.2,0.6 -0.6,1.2 -0.6,0.6 -0.6,1.2 -0.6,0.6 -0.6,0.6 -1.2,1.2 -0.6,0.6 -0.6,0.6 -0.6,0.6 -1.2,0.6 -0.6,0.6 -0.6,1.2 -1.2,0.6 -0.6,0.6 -1.2,0.6 h -1.2 l -0.6,0.6 -1.2,0.6 -1.2,0.6 h -1.2 l -0.6,0.6 -1.2,0.6 h -2.4 l -1.2,0.6 h -2.4 l -1.2,0.6 h -3.6"
         style="fill:none;stroke:#000000;stroke-width:3;stroke-linecap:round;stroke-linejoin:miter;stroke-miterlimit:10;stroke-dasharray:none;stroke-opacity:1"
         id="path104"
         inkscape:connector-curvature="0" /><path
         d="m 3779,5626.6 47.4,0.6 -22.8,-41.4"
         style="fill:none;stroke:#000000;stroke-width:7;stroke-linecap:round;stroke-linejoin:miter;stroke-miterlimit:10;stroke-dasharray:none;stroke-opacity:1"
         id="path106"
         inkscape:connector-curvature="0" /><path
         d="m 3708.2,5555.2 118.2,72"
         style="fill:none;stroke:#000000;stroke-width:7;stroke-linecap:round;stroke-linejoin:miter;stroke-miterlimit:10;stroke-dasharray:none;stroke-opacity:1"
         id="path108"
         inkscape:connector-curvature="0" /><text
         xml:space="preserve"
         style="font-style:normal;font-weight:normal;font-size:100px;line-height:1.25;font-family:sans-serif;letter-spacing:0px;word-spacing:0px;fill:#000000;fill-opacity:1;stroke:none;stroke-width:6.25"
         x="1085.3353"
         y="-5807.7266"
         id="text386"
         transform="scale(1,-1)"><tspan
           sodipodi:role="line"
           id="tspan384"
           x="1085.3353"
           y="-5719.25"
           style="stroke-width:6.25"></tspan></text>
<text
         xml:space="preserve"
         style="font-style:normal;font-weight:normal;font-size:100px;line-height:1.25;font-family:sans-serif;letter-spacing:0px;word-spacing:0px;fill:#000000;fill-opacity:1;stroke:none;stroke-width:6.25"
         x="1062.5"
         y="-5781.25"
         id="text396"
         transform="scale(1,-1)"><tspan
           sodipodi:role="line"
           id="tspan394"
           x="1062.5"
           y="-5781.25"
           style="stroke-width:6.25">1</tspan></text>
<text
         xml:space="preserve"
         style="font-style:normal;font-weight:normal;font-size:100px;line-height:1.25;font-family:sans-serif;letter-spacing:0px;word-spacing:0px;fill:#000000;fill-opacity:1;stroke:none;stroke-width:6.25"
         x="1281.25"
         y="-5781.25"
         id="text400"
         transform="scale(1,-1)"><tspan
           sodipodi:role="line"
           id="tspan398"
           x="1281.25"
           y="-5692.7734"
           style="stroke-width:6.25"></tspan></text>
<text
         xml:space="preserve"
         style="font-style:normal;font-weight:normal;font-size:100px;line-height:1.25;font-family:sans-serif;letter-spacing:0px;word-spacing:0px;fill:#000000;fill-opacity:1;stroke:none;stroke-width:6.25"
         x="1250"
         y="-5781.25"
         id="text404"
         transform="scale(1,-1)"><tspan
           sodipodi:role="line"
           id="tspan402"
           x="1250"
           y="-5781.25"
           style="stroke-width:6.25">2</tspan></text>
<text
         xml:space="preserve"
         style="font-style:normal;font-weight:normal;font-size:100px;line-height:1.25;font-family:sans-serif;letter-spacing:0px;word-spacing:0px;fill:#000000;fill-opacity:1;stroke:none;stroke-width:6.25"
         x="1468.75"
         y="-5781.25"
         id="text408"
         transform="scale(1,-1)"><tspan
           sodipodi:role="line"
           id="tspan406"
           x="1468.75"
           y="-5781.25"
           style="stroke-width:6.25">3</tspan></text>
<text
         xml:space="preserve"
         style="font-style:normal;font-weight:normal;font-size:100px;line-height:1.25;font-family:sans-serif;letter-spacing:0px;word-spacing:0px;fill:#000000;fill-opacity:1;stroke:none;stroke-width:6.25"
         x="1656.25"
         y="-5781.25"
         id="text412"
         transform="scale(1,-1)"><tspan
           sodipodi:role="line"
           id="tspan410"
           x="1656.25"
           y="-5781.25"
           style="stroke-width:6.25">4</tspan></text>
<text
         xml:space="preserve"
         style="font-style:normal;font-weight:normal;font-size:100px;line-height:1.25;font-family:sans-serif;letter-spacing:0px;word-spacing:0px;fill:#000000;fill-opacity:1;stroke:none;stroke-width:6.25"
         x="1843.75"
         y="-5781.25"
         id="text416"
         transform="scale(1,-1)"><tspan
           sodipodi:role="line"
           id="tspan414"
           x="1843.75"
           y="-5781.25"
           style="stroke-width:6.25">5</tspan></text>
<text
         xml:space="preserve"
         style="font-style:normal;font-weight:normal;font-size:100px;line-height:1.25;font-family:sans-serif;letter-spacing:0px;word-spacing:0px;fill:#000000;fill-opacity:1;stroke:none;stroke-width:6.25"
         x="2062.5"
         y="-5781.25"
         id="text420"
         transform="scale(1,-1)"><tspan
           sodipodi:role="line"
           id="tspan418"
           x="2062.5"
           y="-5781.25"
           style="stroke-width:6.25">6</tspan></text>
<text
         xml:space="preserve"
         style="font-style:normal;font-weight:normal;font-size:100px;line-height:1.25;font-family:sans-serif;letter-spacing:0px;word-spacing:0px;fill:#000000;fill-opacity:1;stroke:none;stroke-width:6.25"
         x="2250"
         y="-5781.25"
         id="text424"
         transform="scale(1,-1)"><tspan
           sodipodi:role="line"
           id="tspan422"
           x="2250"
           y="-5781.25"
           style="stroke-width:6.25">7</tspan></text>
<text
         xml:space="preserve"
         style="font-style:normal;font-weight:normal;font-size:100px;line-height:1.25;font-family:sans-serif;letter-spacing:0px;word-spacing:0px;fill:#000000;fill-opacity:1;stroke:none;stroke-width:6.25"
         x="2437.5"
         y="-5781.25"
         id="text428"
         transform="scale(1,-1)"><tspan
           sodipodi:role="line"
           id="tspan426"
           x="2437.5"
           y="-5781.25"
           style="stroke-width:6.25">8</tspan></text>
<text
         xml:space="preserve"
         style="font-style:normal;font-weight:normal;font-size:100px;line-height:1.25;font-family:sans-serif;letter-spacing:0px;word-spacing:0px;fill:#000000;fill-opacity:1;stroke:none;stroke-width:6.25"
         x="2656.25"
         y="-5781.25"
         id="text432"
         transform="scale(1,-1)"><tspan
           sodipodi:role="line"
           id="tspan430"
           x="2656.25"
           y="-5781.25"
           style="stroke-width:6.25">9</tspan></text>
<text
         xml:space="preserve"
         style="font-style:normal;font-weight:normal;font-size:100px;line-height:1.25;font-family:sans-serif;letter-spacing:0px;word-spacing:0px;fill:#000000;fill-opacity:1;stroke:none;stroke-width:6.25"
         x="2811.231"
         y="-5782.1792"
         id="text436"
         transform="scale(1,-1)"><tspan
           sodipodi:role="line"
           id="tspan434"
           x="2811.231"
           y="-5782.1792"
           style="stroke-width:6.25">10</tspan></text>
<text
         xml:space="preserve"
         style="font-style:normal;font-weight:normal;font-size:100px;line-height:1.25;font-family:sans-serif;letter-spacing:0px;word-spacing:0px;fill:#000000;fill-opacity:1;stroke:none;stroke-width:6.25"
         x="3016.3843"
         y="-5781.25"
         id="text440"
         transform="scale(1,-1)"><tspan
           sodipodi:role="line"
           id="tspan438"
           x="3016.3843"
           y="-5781.25"
           style="stroke-width:6.25">11</tspan></text>
<text
         xml:space="preserve"
         style="font-style:normal;font-weight:normal;font-size:100px;line-height:1.25;font-family:sans-serif;letter-spacing:0px;word-spacing:0px;fill:#000000;fill-opacity:1;stroke:none;stroke-width:6.25"
         x="3218.75"
         y="-5781.25"
         id="text444"
         transform="scale(1,-1)"><tspan
           sodipodi:role="line"
           id="tspan442"
           x="3218.75"
           y="-5781.25"
           style="stroke-width:6.25">12</tspan></text>
<text
         xml:space="preserve"
         style="font-style:normal;font-weight:normal;font-size:100px;line-height:1.25;font-family:sans-serif;letter-spacing:0px;word-spacing:0px;fill:#000000;fill-opacity:1;stroke:none;stroke-width:6.25"
         x="3409.6265"
         y="-5782.1792"
         id="text448"
         transform="scale(1,-1)"><tspan
           sodipodi:role="line"
           id="tspan446"
           x="3409.6265"
           y="-5782.1792"
           style="stroke-width:6.25">13</tspan></text>
<text
         xml:space="preserve"
         style="font-style:normal;font-weight:normal;font-size:100px;line-height:1.25;font-family:sans-serif;letter-spacing:0px;word-spacing:0px;fill:#000000;fill-opacity:1;stroke:none;stroke-width:6.25"
         x="3593.75"
         y="-5781.25"
         id="text452"
         transform="scale(1,-1)"><tspan
           sodipodi:role="line"
           id="tspan450"
           x="3593.75"
           y="-5781.25"
           style="stroke-width:6.25">14</tspan></text>
<text
         xml:space="preserve"
         style="font-style:normal;font-weight:normal;font-size:100px;line-height:1.25;font-family:sans-serif;letter-spacing:0px;word-spacing:0px;fill:#000000;fill-opacity:1;stroke:none;stroke-width:6.25"
         x="3574.0405"
         y="-5544.1045"
         id="text456"
         transform="scale(1,-1)"><tspan
           sodipodi:role="line"
           id="tspan454"
           x="3574.0405"
           y="-5544.1045"
           style="font-size:66.66667175px;stroke-width:6.25">$\mu_1$</tspan></text>
<text
         xml:space="preserve"
         style="font-style:normal;font-weight:normal;font-size:100px;line-height:1.25;font-family:sans-serif;letter-spacing:0px;word-spacing:0px;fill:#000000;fill-opacity:1;stroke:none;stroke-width:6.25"
         x="3866.4846"
         y="-5546.4473"
         id="text456-3"
         transform="scale(1,-1)"><tspan
           sodipodi:role="line"
           id="tspan454-6"
           x="3866.4846"
           y="-5546.4473"
           style="font-size:66.66667938px;stroke-width:6.25">$\mu_2$</tspan></text>
<text
         xml:space="preserve"
         style="font-style:normal;font-weight:normal;font-size:100px;line-height:1.25;font-family:sans-serif;letter-spacing:0px;word-spacing:0px;fill:#000000;fill-opacity:1;stroke:none;stroke-width:6.25"
         x="3766.5112"
         y="-5919.1045"
         id="text478"
         transform="scale(1,-1)"><tspan
           sodipodi:role="line"
           id="tspan476"
           x="3766.5112"
           y="-5919.1045"
           style="stroke-width:6.25">$k_r$</tspan></text>
</g></g></svg>